<mxfile host="app.diagrams.net" modified="2023-01-31T07:42:14.279Z" agent="5.0 (X11; Linux x86_64) AppleWebKit/537.36 (KHTML, like Gecko) Chrome/108.0.0.0 Safari/537.36" etag="x7K-jThotwJSHshxWYsC" version="20.8.13" type="github">
  <diagram name="Page-1" id="vLX13n2NAKbSpI6BcWqy">
    <mxGraphModel dx="2000" dy="1730" grid="1" gridSize="10" guides="1" tooltips="1" connect="1" arrows="1" fold="1" page="1" pageScale="1" pageWidth="827" pageHeight="1169" math="0" shadow="0">
      <root>
        <mxCell id="0" />
        <mxCell id="1" parent="0" />
        <mxCell id="76slHNoIaQyzT9S2kKyE-9" style="edgeStyle=orthogonalEdgeStyle;rounded=0;orthogonalLoop=1;jettySize=auto;html=1;exitX=1;exitY=0.25;exitDx=0;exitDy=0;entryX=0;entryY=0.25;entryDx=0;entryDy=0;fontSize=20;" edge="1" parent="1" source="76slHNoIaQyzT9S2kKyE-1" target="76slHNoIaQyzT9S2kKyE-2">
          <mxGeometry relative="1" as="geometry" />
        </mxCell>
        <mxCell id="76slHNoIaQyzT9S2kKyE-15" style="edgeStyle=orthogonalEdgeStyle;rounded=0;orthogonalLoop=1;jettySize=auto;html=1;exitX=0.5;exitY=1;exitDx=0;exitDy=0;fontSize=20;" edge="1" parent="1" source="76slHNoIaQyzT9S2kKyE-1" target="76slHNoIaQyzT9S2kKyE-5">
          <mxGeometry relative="1" as="geometry" />
        </mxCell>
        <mxCell id="76slHNoIaQyzT9S2kKyE-21" style="edgeStyle=orthogonalEdgeStyle;rounded=0;orthogonalLoop=1;jettySize=auto;html=1;exitX=0;exitY=0.75;exitDx=0;exitDy=0;entryX=1;entryY=0.75;entryDx=0;entryDy=0;fontSize=20;" edge="1" parent="1" source="76slHNoIaQyzT9S2kKyE-1" target="76slHNoIaQyzT9S2kKyE-19">
          <mxGeometry relative="1" as="geometry" />
        </mxCell>
        <mxCell id="76slHNoIaQyzT9S2kKyE-1" value="&lt;b&gt;&lt;font style=&quot;font-size: 20px;&quot;&gt;Service1&lt;/font&gt;&lt;/b&gt;" style="rounded=1;whiteSpace=wrap;html=1;" vertex="1" parent="1">
          <mxGeometry x="130" y="120" width="120" height="60" as="geometry" />
        </mxCell>
        <mxCell id="76slHNoIaQyzT9S2kKyE-10" style="edgeStyle=orthogonalEdgeStyle;rounded=0;orthogonalLoop=1;jettySize=auto;html=1;exitX=1;exitY=0.25;exitDx=0;exitDy=0;entryX=0;entryY=0.25;entryDx=0;entryDy=0;fontSize=20;" edge="1" parent="1" source="76slHNoIaQyzT9S2kKyE-2" target="76slHNoIaQyzT9S2kKyE-3">
          <mxGeometry relative="1" as="geometry" />
        </mxCell>
        <mxCell id="76slHNoIaQyzT9S2kKyE-14" style="edgeStyle=orthogonalEdgeStyle;rounded=0;orthogonalLoop=1;jettySize=auto;html=1;exitX=0;exitY=0.75;exitDx=0;exitDy=0;entryX=1;entryY=0.75;entryDx=0;entryDy=0;fontSize=20;" edge="1" parent="1" source="76slHNoIaQyzT9S2kKyE-2" target="76slHNoIaQyzT9S2kKyE-1">
          <mxGeometry relative="1" as="geometry" />
        </mxCell>
        <mxCell id="76slHNoIaQyzT9S2kKyE-16" style="edgeStyle=orthogonalEdgeStyle;rounded=0;orthogonalLoop=1;jettySize=auto;html=1;exitX=0.5;exitY=1;exitDx=0;exitDy=0;entryX=0.5;entryY=0;entryDx=0;entryDy=0;fontSize=20;" edge="1" parent="1" source="76slHNoIaQyzT9S2kKyE-2" target="76slHNoIaQyzT9S2kKyE-6">
          <mxGeometry relative="1" as="geometry" />
        </mxCell>
        <mxCell id="76slHNoIaQyzT9S2kKyE-2" value="&lt;b style=&quot;border-color: var(--border-color);&quot;&gt;&lt;font style=&quot;border-color: var(--border-color); font-size: 20px;&quot;&gt;Service1&lt;/font&gt;&lt;/b&gt;" style="rounded=1;whiteSpace=wrap;html=1;" vertex="1" parent="1">
          <mxGeometry x="380" y="120" width="120" height="60" as="geometry" />
        </mxCell>
        <mxCell id="76slHNoIaQyzT9S2kKyE-11" style="edgeStyle=orthogonalEdgeStyle;rounded=0;orthogonalLoop=1;jettySize=auto;html=1;exitX=1;exitY=0.25;exitDx=0;exitDy=0;entryX=0;entryY=0.25;entryDx=0;entryDy=0;fontSize=20;" edge="1" parent="1" source="76slHNoIaQyzT9S2kKyE-3" target="76slHNoIaQyzT9S2kKyE-4">
          <mxGeometry relative="1" as="geometry" />
        </mxCell>
        <mxCell id="76slHNoIaQyzT9S2kKyE-13" style="edgeStyle=orthogonalEdgeStyle;rounded=0;orthogonalLoop=1;jettySize=auto;html=1;exitX=0;exitY=0.75;exitDx=0;exitDy=0;entryX=1;entryY=0.75;entryDx=0;entryDy=0;fontSize=20;" edge="1" parent="1" source="76slHNoIaQyzT9S2kKyE-3" target="76slHNoIaQyzT9S2kKyE-2">
          <mxGeometry relative="1" as="geometry" />
        </mxCell>
        <mxCell id="76slHNoIaQyzT9S2kKyE-17" style="edgeStyle=orthogonalEdgeStyle;rounded=0;orthogonalLoop=1;jettySize=auto;html=1;exitX=0.5;exitY=1;exitDx=0;exitDy=0;entryX=0.5;entryY=0;entryDx=0;entryDy=0;fontSize=20;" edge="1" parent="1" source="76slHNoIaQyzT9S2kKyE-3" target="76slHNoIaQyzT9S2kKyE-7">
          <mxGeometry relative="1" as="geometry" />
        </mxCell>
        <mxCell id="76slHNoIaQyzT9S2kKyE-3" value="&lt;b style=&quot;border-color: var(--border-color);&quot;&gt;&lt;font style=&quot;border-color: var(--border-color); font-size: 20px;&quot;&gt;Service1&lt;/font&gt;&lt;/b&gt;" style="rounded=1;whiteSpace=wrap;html=1;" vertex="1" parent="1">
          <mxGeometry x="620" y="120" width="120" height="60" as="geometry" />
        </mxCell>
        <mxCell id="76slHNoIaQyzT9S2kKyE-12" style="edgeStyle=orthogonalEdgeStyle;rounded=0;orthogonalLoop=1;jettySize=auto;html=1;exitX=0;exitY=0.75;exitDx=0;exitDy=0;entryX=1;entryY=0.75;entryDx=0;entryDy=0;fontSize=20;" edge="1" parent="1" source="76slHNoIaQyzT9S2kKyE-4" target="76slHNoIaQyzT9S2kKyE-3">
          <mxGeometry relative="1" as="geometry" />
        </mxCell>
        <mxCell id="76slHNoIaQyzT9S2kKyE-18" style="edgeStyle=orthogonalEdgeStyle;rounded=0;orthogonalLoop=1;jettySize=auto;html=1;exitX=0.5;exitY=1;exitDx=0;exitDy=0;fontSize=20;" edge="1" parent="1" source="76slHNoIaQyzT9S2kKyE-4" target="76slHNoIaQyzT9S2kKyE-8">
          <mxGeometry relative="1" as="geometry" />
        </mxCell>
        <mxCell id="76slHNoIaQyzT9S2kKyE-4" value="&lt;b style=&quot;border-color: var(--border-color);&quot;&gt;&lt;font style=&quot;border-color: var(--border-color); font-size: 20px;&quot;&gt;Service1&lt;/font&gt;&lt;/b&gt;" style="rounded=1;whiteSpace=wrap;html=1;" vertex="1" parent="1">
          <mxGeometry x="850" y="120" width="120" height="60" as="geometry" />
        </mxCell>
        <mxCell id="76slHNoIaQyzT9S2kKyE-5" value="&lt;b&gt;&lt;font style=&quot;font-size: 20px;&quot;&gt;Logs with Token&lt;/font&gt;&lt;/b&gt;" style="rounded=1;whiteSpace=wrap;html=1;" vertex="1" parent="1">
          <mxGeometry x="130" y="310" width="120" height="60" as="geometry" />
        </mxCell>
        <mxCell id="76slHNoIaQyzT9S2kKyE-6" value="&lt;b style=&quot;border-color: var(--border-color);&quot;&gt;&lt;font style=&quot;border-color: var(--border-color); font-size: 20px;&quot;&gt;Logs with Token&lt;/font&gt;&lt;/b&gt;" style="rounded=1;whiteSpace=wrap;html=1;" vertex="1" parent="1">
          <mxGeometry x="380" y="310" width="120" height="60" as="geometry" />
        </mxCell>
        <mxCell id="76slHNoIaQyzT9S2kKyE-7" value="&lt;b style=&quot;border-color: var(--border-color);&quot;&gt;&lt;font style=&quot;border-color: var(--border-color); font-size: 20px;&quot;&gt;Logs with Token&lt;/font&gt;&lt;/b&gt;" style="rounded=1;whiteSpace=wrap;html=1;" vertex="1" parent="1">
          <mxGeometry x="620" y="310" width="120" height="60" as="geometry" />
        </mxCell>
        <mxCell id="76slHNoIaQyzT9S2kKyE-8" value="&lt;b style=&quot;border-color: var(--border-color);&quot;&gt;&lt;font style=&quot;border-color: var(--border-color); font-size: 20px;&quot;&gt;Logs with Token&lt;/font&gt;&lt;/b&gt;" style="rounded=1;whiteSpace=wrap;html=1;" vertex="1" parent="1">
          <mxGeometry x="850" y="310" width="120" height="60" as="geometry" />
        </mxCell>
        <mxCell id="76slHNoIaQyzT9S2kKyE-20" style="edgeStyle=orthogonalEdgeStyle;rounded=0;orthogonalLoop=1;jettySize=auto;html=1;exitX=0.75;exitY=0.25;exitDx=0;exitDy=0;exitPerimeter=0;entryX=0;entryY=0.25;entryDx=0;entryDy=0;fontSize=20;" edge="1" parent="1" source="76slHNoIaQyzT9S2kKyE-19" target="76slHNoIaQyzT9S2kKyE-1">
          <mxGeometry relative="1" as="geometry" />
        </mxCell>
        <mxCell id="76slHNoIaQyzT9S2kKyE-19" value="" style="shape=actor;whiteSpace=wrap;html=1;fontSize=20;" vertex="1" parent="1">
          <mxGeometry x="-50" y="120" width="40" height="60" as="geometry" />
        </mxCell>
        <mxCell id="76slHNoIaQyzT9S2kKyE-22" value="&lt;b&gt;token &lt;br&gt;/request&lt;/b&gt;" style="text;html=1;align=center;verticalAlign=middle;resizable=0;points=[];autosize=1;strokeColor=none;fillColor=none;fontSize=20;" vertex="1" parent="1">
          <mxGeometry y="70" width="100" height="60" as="geometry" />
        </mxCell>
        <mxCell id="76slHNoIaQyzT9S2kKyE-24" value="&lt;b&gt;token &lt;br&gt;/request&lt;/b&gt;" style="text;html=1;align=center;verticalAlign=middle;resizable=0;points=[];autosize=1;strokeColor=none;fillColor=none;fontSize=20;" vertex="1" parent="1">
          <mxGeometry x="260" y="60" width="100" height="60" as="geometry" />
        </mxCell>
        <mxCell id="76slHNoIaQyzT9S2kKyE-25" value="&lt;b&gt;token &lt;br&gt;/request&lt;/b&gt;" style="text;html=1;align=center;verticalAlign=middle;resizable=0;points=[];autosize=1;strokeColor=none;fillColor=none;fontSize=20;" vertex="1" parent="1">
          <mxGeometry x="520" y="70" width="100" height="60" as="geometry" />
        </mxCell>
        <mxCell id="76slHNoIaQyzT9S2kKyE-26" value="&lt;b&gt;token &lt;br&gt;/request&lt;/b&gt;" style="text;html=1;align=center;verticalAlign=middle;resizable=0;points=[];autosize=1;strokeColor=none;fillColor=none;fontSize=20;" vertex="1" parent="1">
          <mxGeometry x="750" y="70" width="100" height="60" as="geometry" />
        </mxCell>
        <mxCell id="76slHNoIaQyzT9S2kKyE-27" value="&lt;b&gt;token&lt;br&gt;/response&lt;br&gt;&lt;/b&gt;" style="text;html=1;align=center;verticalAlign=middle;resizable=0;points=[];autosize=1;strokeColor=none;fillColor=none;fontSize=20;" vertex="1" parent="1">
          <mxGeometry x="730" y="180" width="120" height="60" as="geometry" />
        </mxCell>
        <mxCell id="76slHNoIaQyzT9S2kKyE-28" value="&lt;b&gt;token&lt;br&gt;/response&lt;br&gt;&lt;/b&gt;" style="text;html=1;align=center;verticalAlign=middle;resizable=0;points=[];autosize=1;strokeColor=none;fillColor=none;fontSize=20;" vertex="1" parent="1">
          <mxGeometry x="500" y="180" width="120" height="60" as="geometry" />
        </mxCell>
        <mxCell id="76slHNoIaQyzT9S2kKyE-29" value="&lt;b&gt;token&lt;br&gt;/response&lt;br&gt;&lt;/b&gt;" style="text;html=1;align=center;verticalAlign=middle;resizable=0;points=[];autosize=1;strokeColor=none;fillColor=none;fontSize=20;" vertex="1" parent="1">
          <mxGeometry x="260" y="180" width="120" height="60" as="geometry" />
        </mxCell>
        <mxCell id="76slHNoIaQyzT9S2kKyE-30" value="&lt;b&gt;token&lt;br&gt;/response&lt;br&gt;&lt;/b&gt;" style="text;html=1;align=center;verticalAlign=middle;resizable=0;points=[];autosize=1;strokeColor=none;fillColor=none;fontSize=20;" vertex="1" parent="1">
          <mxGeometry y="180" width="120" height="60" as="geometry" />
        </mxCell>
        <mxCell id="76slHNoIaQyzT9S2kKyE-31" value="" style="shape=curlyBracket;whiteSpace=wrap;html=1;rounded=1;labelPosition=left;verticalLabelPosition=middle;align=right;verticalAlign=middle;fontSize=20;rotation=90;strokeWidth=5;" vertex="1" parent="1">
          <mxGeometry x="453.13" y="-451.87" width="58.75" height="945" as="geometry" />
        </mxCell>
        <mxCell id="76slHNoIaQyzT9S2kKyE-32" value="&lt;b&gt;Request Chain&lt;/b&gt;" style="text;html=1;align=center;verticalAlign=middle;resizable=0;points=[];autosize=1;strokeColor=none;fillColor=none;fontSize=20;" vertex="1" parent="1">
          <mxGeometry x="393" y="-40" width="160" height="40" as="geometry" />
        </mxCell>
      </root>
    </mxGraphModel>
  </diagram>
</mxfile>
